<?xml version="1.0" encoding="utf-8"?>
<!-- Generator: Adobe Illustrator 27.5.0, SVG Export Plug-In . SVG Version: 6.00 Build 0)  -->
<svg version="1.1" xmlns="http://www.w3.org/2000/svg" xmlns:xlink="http://www.w3.org/1999/xlink" x="0px" y="0px"
	 viewBox="0 0 3000 2000" style="enable-background:new 0 0 3000 2000;" xml:space="preserve">
<g id="Layer_1">
</g>
<g id="Layer_2">
	<path style="fill:#0D0D0D;" d="M1803.855,1814.161c-77.792,0-114.355-35.611-131.331-65.485
		c-18.809-33.102-24.499-77.43-16.456-128.19c6.69-42.225,22.291-86.37,45.361-128.614c-83.17,0.795-170.342,1.647-256.534,2.491
		C1148.541,1497.262,868.62,1500,795,1500c-74.975,0-126.419-9.612-157.271-29.385c-27.538-17.648-40.363-43.487-40.363-81.317
		c0-42.031,37.341-59.487,38.93-60.21l19.629-8.923l-5.868,20.748c-0.106,0.385-11.096,41.579,14.313,74.966
		C687.659,1446.482,733.628,1462,801,1462c341.524,0,645.322-4.968,928.487-15.185c27.999-39.603,61.236-72.879,96.36-96.432
		c40.924-27.442,83.086-41.357,125.314-41.357c38.162,0,83.653,19.989,83.653,115.22c0,3.306-0.113,6.716-0.338,10.209
		c44.401-1.63,74.826-2.455,90.522-2.455c5.448,0,13.266,0.014,22.151,0.117c66.182-110.062,120.346-224.508,156.409-312.509
		c-24.447,33.868-58.534,66.621-98.934,66.621c-10.919,0-23.42-1.124-33.346-9.458c-9.421-7.91-14.635-20.636-15.839-38.761
		c-40.052,34.412-64.34,48.782-81.588,48.782c-23.9,0-38.747-13.552-38.747-35.365c0-3.449,0.462-7.345,1.404-11.745
		c-26.992,27.611-45.883,43.855-61.014,44.288c-0.479,0.014-0.951,0.021-1.421,0.021c-11.634,0-21.461-4.264-28.419-12.33
		c-6.688-7.752-10.589-18.863-11.613-32.79c-31.104,31.824-58.838,47.922-82.653,47.922c-11.818,0-22.664-5.497-30.539-15.479
		c-6.232-7.9-10.076-18.191-10.436-27.81c-22.684,25.311-39.265,40.057-53.625,40.467c-0.479,0.014-0.951,0.021-1.422,0.021
		c-12.195,0-22.348-4.657-29.36-13.468c-8.854-11.127-11.423-26.818-10.935-42.735c-10.601,11.428-20.293,21.253-28.971,29.363
		c-27.579,25.772-39.52,29.078-46.841,29.078c-23.432,0-40.438-16.533-40.438-39.312c0-22.347,24.039-73.428,55.464-137.884
		c7.782-15.962,16.777-34.412,22.501-47.293c-7.065,4.32-16.94,11.677-30.436,24.157c-18.43,17.045-39.473,39.944-57.838,62.936
		c-18.617,35.19-31.599,60.998-40.83,81.167c-13.633,29.786-15.668,40.101-15.668,43.598v10h-10
		c-12.232,0-19.474-0.103-26.477-0.201c-6.353-0.09-12.353-0.175-21.623-0.175h-10v-10c0-7.01,4.907-22.051,25.301-65.717
		c-12.126,12.518-24.98,24.953-37.885,36.1c-33.645,29.061-60.122,43.188-80.944,43.188c-11.818,0-22.664-5.497-30.539-15.479
		c-6.551-8.305-10.463-19.25-10.463-29.28c0-3.431,0.721-8.369,4.002-17.771c-10.09,9.979-19.605,18.852-28.489,26.563
		c-29.159,25.308-50.082,37.095-65.847,37.095c-26.774,0-42.129-16.793-42.129-46.074c0-19.586,20.742-59.021,52.385-116.947
		c10.621-19.442,23.742-43.462,31.865-60.704c-34.539,52.814-71.37,103.096-103.363,140.935
		c-20.893,24.709-39.629,44.102-55.689,57.639c-19.178,16.167-34.584,24.025-47.097,24.025c-23.9,0-38.748-13.552-38.748-35.365
		c0-28.307,32.378-85.748,71.493-152.36c7.899-13.453,16.416-27.956,22.368-38.821c-16.079,6.046-37.032,14.818-59.705,25.045
		c2.102,48.769-26.156,112.896-73.598,165.879c-46.679,52.133-102.347,82.032-152.729,82.032c-24.482,0-42.31-4.587-54.502-14.022
		c-13.547-10.484-20.132-26.377-20.132-48.587c0-5.115,1.21-10.523,3.641-16.235c-36.641,38.275-75.507,67.571-108.63,67.571
		c-29.811,0-48.33-29.174-48.33-76.138c0-38.956,12.375-84.023,36.779-133.949c21.775-44.546,52.532-91.942,91.417-140.872
		c70.239-88.384,160.373-173.188,241.638-227.422c38.657-92.095,66.346-175.294,80.117-240.759
		c15.386-73.144,13.899-126.298-4.302-153.715c-10.426-15.708-26.383-23.344-48.781-23.344
		c-111.594,0-191.414,91.669-238.724,168.569c-56.655,92.09-87.226,198.027-87.226,250.949c0,16.563,3.384,70.605,46.931,70.605
		c58.174,0,135.275-74.215,152.774-131.244c-5.892-17.373-7.341-49.054,3.746-65.854c5.356-8.117,13.393-12.588,22.629-12.588
		c8.525,0,14.585,4.944,18.382,9.552c2.008-0.398,4.236-0.68,6.527-0.68c10.505,0,21.73,6.22,21.73,23.675
		c0,19.861-24.863,43.868-38.613,53.854c-10.905,25.856-33.751,63.538-66.76,95.067c-38.558,36.83-81.366,56.297-123.797,56.297
		c-18.373,0-36.596-9.342-49.998-25.63c-10.554-12.826-23.134-36.173-23.134-74.558c0-59.942,31.107-170.775,90.563-266.628
		c32.879-53.006,70.341-95.227,111.349-125.491c48.361-35.691,100.616-53.788,155.312-53.788c41.371,0,72.693,14.663,93.097,43.581
		c23.6,33.447,31.858,85.556,24.545,154.877c-5.95,56.407-21.893,122.851-47.433,197.746c9.823-2.584,18.771-3.888,26.743-3.888
		c50.478,0,69.406,25.801,76.397,47.445c11.645,36.054-0.729,91.449-33.95,151.982c-29.036,52.907-70.425,102.86-112.467,136.158
		c12.513,9.4,19.208,21.024,23.43,32.531c32.951-14.907,60.331-25.516,76.631-29.668c3.009-1.954,8.72-4.755,16.744-4.755
		c2.152,0,4.248,0.191,6.276,0.554c-10.002-11.971-10.146-39.974-10.146-41.475c0-8.261,0.962-20.176,5.544-30.027
		c5.265-11.316,14.278-17.548,25.382-17.548c8.524,0,14.585,4.945,18.382,9.552c2.008-0.398,4.236-0.68,6.527-0.68
		c10.505,0,21.73,6.22,21.73,23.675c0,15.058-14.225,31.627-22.704,40.163c-4.708,4.739-20.12,19.466-31.606,21.468
		c10.444,6.618,17.108,17.996,17.108,28.557c0,18.064-23.476,60.458-59.29,123.073c-11.972,20.931-27.023,47.245-35.354,64.085
		c11.56-8.438,31.096-26.396,62.539-64.565c35.93-43.616,77.537-101.819,114.153-159.684l0.812-1.284
		c-8.777-16.116-19.436-39.565-19.436-77.178c0-70.056,54.975-144.154,106.952-144.154c16.995,0,28.414,13.985,28.414,34.801
		c0,37.807-49.261,126.416-72.998,166.912c5.517,14.475,13.608,19.747,20.815,24.443c7.009,4.566,15.732,10.249,15.732,22.841
		c0,19.547-22.456,63.811-56.713,129.108c-11.33,21.595-25.566,48.731-33.382,66.101c15.384-11.489,46.055-38.594,105.349-102.529
		c15.936-31.119,34.66-66.306,54.468-103.528c14.695-27.615,29.868-56.127,44.101-83.386c-16.213-2.821-31.022-7.127-43.577-12.759
		c-27.663-12.409-42.898-30.863-42.898-51.963c0-19.743,13.396-26.91,22.401-26.91c19.9,0,26.903,13.853,32.529,24.984
		c6.947,13.742,14.763,29.204,47.709,35.407c17.873-34.911,31.121-62.256,40.434-83.45c14.8-33.682,17.01-46.013,17.01-50.365
		c0-7.929-1.724-11.737-2.286-12.767l-7.49-6.207l7.414-6.801c0.903-1.078,9.175-10.53,21.381-10.53
		c18.852,0,32.897,5.833,41.747,17.337c7.464,9.704,11.093,23.283,11.093,41.515c0,11.234-5.214,34.184-43.978,111.267
		c22.284-2.385,42.366-6.072,62.346-10.047c42.758-88.871,51.82-116.402,51.82-123.767c0-7.929-1.724-11.737-2.286-12.767
		l-7.49-6.207l7.413-6.801c0.903-1.078,9.174-10.53,21.381-10.53c35.305,0,53.966,17.231,53.966,49.833
		c0,14.499-11.367,44.067-36.589,94.87c20.344-2.313,40.11-3.408,60.974-3.408c32.804,0,57.954,6.972,74.75,20.722
		c14.798,12.114,22.619,29.067,22.619,49.027c0,37.94-24.184,51.712-40.438,51.712c-14.893,0-27.474-10.775-27.474-23.528
		c0-14.301,9.788-22.982,17.652-29.959c6.202-5.502,9.968-9.113,9.968-12.88c0-10.047-18.819-20.438-50.313-20.438
		c-31.547,0-59.663,2.935-87.233,7.006l-2.512,4.805c-18.81,35.975-40.574,75.992-61.621,114.693
		c-0.809,1.487-1.619,2.977-2.432,4.47c22.566-19.113,47.644-34.294,70.374-34.294c18.445,0,37.057,10.935,37.057,35.366
		c0,21.613-21.915,65.693-52.876,125.606c-8.327,16.114-18.474,35.75-25.443,50.697c11.558-11.062,30.189-30.454,59.979-64.469
		c12.064-36.304,32.254-72.395,55.588-99.305c28.763-33.172,60.374-50.708,91.414-50.715c15.163,0,26.007,4.672,32.246,13.887
		c0.615,0.908,1.164,1.833,1.654,2.772c0.307-0.576,0.616-1.158,0.924-1.735c28.655-53.848,58.287-109.529,80.769-155.482
		c30.526-62.396,36.935-84.984,36.935-92.947c0-7.929-1.725-11.737-2.286-12.767l-7.49-6.207l7.414-6.801
		c0.902-1.078,9.174-10.53,21.381-10.53c18.852,0,32.897,5.833,41.747,17.337c7.465,9.704,11.093,23.283,11.093,41.515
		c0,33.188-57.198,139.823-138.004,286.846c-22.077,40.168-42.929,78.107-58.229,107.44c-11.143,21.36-17.343,34.405-20.772,42.368
		c15.357-7.465,35.753-26.51,58.322-54.766c9.129-38.063,29.215-79.395,54.005-111.012c21.429-27.329,55.998-59.908,98.998-59.917
		c15.162,0,26.007,4.672,32.246,13.887c5.473,8.082,5.783,17.546,4.793,24.835c4.071-7.428,6.95-13.164,7.627-15.721
		c-0.032-0.733-0.129-1.224-0.199-1.494l-5.043-6.724l6.978-6.106c1.225-1.072,7.898-6.422,18.986-6.422
		c20.887,0,36.493,18.076,36.493,34.238c0,18.064-23.476,60.459-59.29,123.074c-12.026,21.025-27.16,47.483-35.468,64.313
		c4.047-2.597,9.137-6.126,15.498-10.922c15.347-11.568,33.572-27.063,48.188-39.697c12.882-34.682,40.454-77.697,60.717-109.311
		c10.723-16.728,22.846-35.642,24.372-40.959c-0.033-0.727-0.13-1.214-0.199-1.482l-5.047-6.725l6.981-6.108
		c1.225-1.072,7.898-6.421,18.985-6.421c20.887,0,36.493,18.076,36.493,34.238c0,21.733-24.498,64.768-50.434,110.332
		c-12.424,21.824-24.158,42.438-32.658,59.785c-8.449,17.242-10.823,25.611-11.412,29.472c40.421-2.584,75.594-55.757,93.203-87.77
		c25.607-46.554,42.827-100.564,42.903-121.961l-3.456-4.717l4.478-5.71c0.941-1.284,9.624-12.542,24.411-12.542
		c13.345,0,44.384,5.918,44.384,60.731c0,70.696-72.338,271.015-177.149,451.237c49.562,5.159,89.813,14.514,119.814,27.858
		c46.148,20.526,69.548,50.753,69.548,89.838c0,23.788-20.78,51.193-23.149,54.24l-12.981,16.691l-4.666-20.625
		c-0.062-0.263-7.146-29.641-34.927-58.5c-33.976-35.297-82.711-54.758-145.045-57.972l-1.111,1.75
		c-60.516,95.324-122.9,171.348-185.422,225.956C1946.898,1781.196,1873.729,1814.161,1803.855,1814.161z M1742.085,1491.483
		c-35.364,57.354-56.37,119.649-56.37,170.187c0,31.101,7.866,55.53,23.378,72.611c17.064,18.788,43.384,28.314,78.228,28.314
		c119.482,0,241.405-146.918,324.632-274.272c-24.652,0.156-53.979,0.371-88.351,0.646c-11.423,36.008-29.131,69.021-40.902,90.967
		c-1.369,2.554-2.69,5.018-3.905,7.307c5.23,17.643,6.412,47.514-4.839,63.944c-5.421,7.915-13.132,12.099-22.302,12.099
		c-8.524,0-14.585-4.945-18.382-9.553c-2.008,0.398-4.236,0.681-6.526,0.681c-10.505,0-21.73-6.22-21.73-23.675
		c0-21.143,28.668-47.926,43.542-57.129l0.327-0.562c9.737-16.677,27.409-46.946,39.255-83.788
		c-65.01,0.543-145.389,1.27-243.042,2.194L1742.085,1491.483z M1949.659,1339.549c-57.717,0-121.33,38.646-175.479,106.336
		c3.392-0.178,7.508-0.387,12.259-0.623c15.489-0.771,36.365-1.768,58.783-2.805c32.201-1.49,93.766-4.276,153.962-6.654
		c0.399-4.958,0.601-9.831,0.601-14.563c0-28.636-5.116-50.246-15.208-64.232C1976.218,1345.423,1964.47,1339.549,1949.659,1339.549
		z M963.938,694.264c-68.314,53.743-143.15,128.932-201.724,203.362c-77.898,98.987-120.799,187.121-120.799,248.165
		c0,31.262,6.604,42.609,11.044,42.609c12.594,0,55.164-33.614,134.837-159.604C849.066,931.118,912.751,810.405,963.938,694.264z
		 M983.493,1026.991c-38.121,19.782-85.219,46.175-123.649,73.751c-55.997,40.181-64.358,61.952-64.358,71.354
		c0,7.747,8.129,14.802,17.056,14.802c27.314,0,64.454-22.625,101.896-62.074C942.196,1095.576,967.229,1059.876,983.493,1026.991z
		 M2098.093,968.651c-2.49,0-12.128,1.881-31.626,26.078c-18.132,22.503-39.247,57.87-56.482,94.608
		c-13.698,29.195-20.246,49.128-22.383,59.67c2.829-2.01,6.682-5.111,11.828-9.897c9.727-9.043,20.93-21.057,32.791-33.775
		c11.247-12.06,22.863-24.516,33.96-35.197c12.749-23.943,27.432-48.95,40.417-71.063c2.611-4.447,5.289-9.008,7.92-13.515
		l-6.397-12.169C2107.546,972.568,2104.476,968.651,2098.093,968.651z M1879.388,968.651c-2.489,0-12.128,1.881-31.626,26.078
		c-18.132,22.502-39.247,57.87-56.482,94.607c-13.438,28.642-19.994,48.367-22.256,59.06c2.587-2.08,5.998-5.162,10.42-9.727
		c9.021-9.314,19.293-21.639,30.168-34.687c9.367-11.239,19.042-22.848,28.447-33.134c13.737-27.992,31.445-61.801,50.753-98.214
		C1887.555,971.223,1884.558,968.651,1879.388,968.651z M1553.36,858.779c-23.124,44.202-49.251,91.813-74.519,137.856
		c-22.149,40.36-43.07,78.482-58.427,107.97c-11.12,21.353-17.335,34.441-20.788,42.46c28.466-13.874,80.245-65.113,136.638-136.195
		c8.927-17.939,18.056-36.188,27.71-55.485c17.759-35.5,36.079-72.118,52.91-106.415c-19.695,2.961-40.15,5.478-61.993,6.881
		L1553.36,858.779z M913.913,961.153c-14.392,24.042-29.027,47.192-43.732,69.104c-14.389,21.443-32.597,47.238-52.848,72.854
		c8.306-6.929,17.71-14.166,28.222-21.724c38.79-27.889,92.905-59.976,152.376-90.349l0.068-0.034
		c6.008-19.504,7.393-31.104,4.47-39.237c-23.719,12.707-46.358,19.138-67.423,19.138
		C925.793,970.906,918.275,967.222,913.913,961.153z M951.213,937.837c-1.454,0.674-2.794,1.39-4.015,2.124
		C948.45,939.357,949.787,938.655,951.213,937.837z M1070.899,632.913c-33.055,91.018-78.247,188.696-127.956,277.949
		c8.299-2.904,19.047-5.05,32.688-5.05c4.362,0,8.628,0.158,12.74,0.473c33.851-35.838,71.532-91.422,99.128-146.398
		c29.854-59.472,42.398-107.477,33.554-128.416c-2.123-5.025-6.219-10.795-19.159-10.795c-7.78,0-17.479,2.149-28.874,6.396
		L1070.899,632.913z M1365.257,737.92c-6.31,6.642-16.449,20.376-27.265,41.358c-14.967,29.039-23.551,57.025-23.551,76.784
		c0,0.409,0.001,0.816,0.003,1.223C1344.73,802.925,1363.13,759.832,1365.257,737.92z"/>
	<g>
		<linearGradient id="SVGID_1_" gradientUnits="userSpaceOnUse" x1="594.365" y1="1408.0957" x2="1731.5967" y2="1408.0957">
			<stop  offset="0.0056" style="stop-color:#A68863"/>
			<stop  offset="0.0886" style="stop-color:#B39673"/>
			<stop  offset="0.2509" style="stop-color:#C8AD8D"/>
			<stop  offset="0.3964" style="stop-color:#D5BB9D"/>
			<stop  offset="0.5099" style="stop-color:#D9C0A3"/>
			<stop  offset="0.6277" style="stop-color:#D1B899"/>
			<stop  offset="0.8247" style="stop-color:#BDA17F"/>
			<stop  offset="1" style="stop-color:#A68863"/>
		</linearGradient>
		<path style="fill:url(#SVGID_1_);" d="M1714.857,1474.215c5.544-7.942,10.568-16.476,16.739-23.943
			C1521.366,1458.006,1219.403,1466,788,1466c-198.413,0-160.566-133.809-160.566-133.809s-33.069,15.031-33.069,51.106
			C594.365,1443.423,627.178,1484,782,1484c97.39,0,560.74-4.842,932.063-8.375
			C1714.267,1475.159,1714.527,1474.688,1714.857,1474.215z"/>
		<g>
			
				<linearGradient id="SVGID_00000155854569105654753890000010353652554689296789_" gradientUnits="userSpaceOnUse" x1="654.4901" y1="464.8862" x2="1111.9398" y2="464.8862">
				<stop  offset="0.0056" style="stop-color:#A68863"/>
				<stop  offset="0.0886" style="stop-color:#B39673"/>
				<stop  offset="0.2509" style="stop-color:#C8AD8D"/>
				<stop  offset="0.3964" style="stop-color:#D5BB9D"/>
				<stop  offset="0.5099" style="stop-color:#D9C0A3"/>
				<stop  offset="0.6277" style="stop-color:#D1B899"/>
				<stop  offset="0.8247" style="stop-color:#BDA17F"/>
				<stop  offset="1" style="stop-color:#A68863"/>
			</linearGradient>
			<path style="fill:url(#SVGID_00000155854569105654753890000010353652554689296789_);" d="M1001.713,201.839
				c-225.469,0-347.223,320.166-347.223,435.907c0,61.628,34.572,90.188,63.131,90.188c91.691,0,162.669-96.275,183.382-150.313
				h-16.534c-16,60.206-98.455,142.234-163.465,142.234c-42.839,0-56.931-42.839-56.931-80.605
				c0-110.48,124.572-429.519,335.949-429.519c122.137,0,75.949,209.155-18.986,434.477c27.275-18.03,52.705-31.878,74.799-40.391
				C1131.841,390.235,1145.605,201.839,1001.713,201.839z"/>
			
				<linearGradient id="SVGID_00000132798099406956256920000015937050470461262745_" gradientUnits="userSpaceOnUse" x1="613.1541" y1="900.0419" x2="1169.4136" y2="900.0419">
				<stop  offset="0.0056" style="stop-color:#A68863"/>
				<stop  offset="0.0886" style="stop-color:#B39673"/>
				<stop  offset="0.2509" style="stop-color:#C8AD8D"/>
				<stop  offset="0.3964" style="stop-color:#D5BB9D"/>
				<stop  offset="0.5099" style="stop-color:#D9C0A3"/>
				<stop  offset="0.6277" style="stop-color:#D1B899"/>
				<stop  offset="0.8247" style="stop-color:#BDA17F"/>
				<stop  offset="1" style="stop-color:#A68863"/>
			</linearGradient>
			<path style="fill:url(#SVGID_00000132798099406956256920000015937050470461262745_);" d="M1098.665,594.155
				c-12.057,0-26.539,3.383-42.83,9.661c-22.094,8.514-47.524,22.362-74.799,40.391
				c-154.443,102.092-367.881,338.004-367.881,495.584c0,34.572,11.273,66.138,38.33,66.138
				c97.721,0,296.325-305.171,397.016-582.429c-24.5,12-48.5,27.5-78.5,46c-111.129,259.177-278.03,522.901-330.541,522.901
				c-15.031,0-21.044-22.547-21.044-52.609c0-140.408,208.839-377.065,357.006-482.377c-0.07,0.164-0.138,0.327-0.209,0.491
				c28.642-20.313,55.027-35.733,77.216-44.617c13.983-5.599,26.304-8.61,36.467-8.61c87.432,0-23.636,217.586-109.644,306.012
				c-5.206-0.578-10.742-0.877-16.619-0.877c-60.125,0-68.392,45.094-40.584,45.094c22.972,0,47.345-8.521,71.488-22.929
				c6.167-3.681,12.319-7.744,18.429-12.151C1137.655,829.181,1245.47,594.155,1098.665,594.155z M922.047,947.391
				c-18.037,0,0.752-30.063,37.578-30.063c4.335,0,8.271,0.371,11.848,1.065C952.547,936.413,935.227,947.391,922.047,947.391z"/>
			
				<linearGradient id="SVGID_00000080924831848744547930000013801846183703227538_" gradientUnits="userSpaceOnUse" x1="766.4732" y1="1069.9761" x2="1146.8691" y2="1069.9761">
				<stop  offset="0.0056" style="stop-color:#A68863"/>
				<stop  offset="0.0886" style="stop-color:#B39673"/>
				<stop  offset="0.2509" style="stop-color:#C8AD8D"/>
				<stop  offset="0.3964" style="stop-color:#D5BB9D"/>
				<stop  offset="0.5099" style="stop-color:#D9C0A3"/>
				<stop  offset="0.6277" style="stop-color:#D1B899"/>
				<stop  offset="0.8247" style="stop-color:#BDA17F"/>
				<stop  offset="1" style="stop-color:#A68863"/>
			</linearGradient>
			<path style="fill:url(#SVGID_00000080924831848744547930000013801846183703227538_);" d="M1142.179,930.476
				c-12.325,0-49.654,14.022-96.28,35.622c-5.149-19.473-13.024-33.473-31.024-43.348c-6.11,4.406-13.166,9.32-19.333,13
				c8.908,13.36,5.837,31.01-2.168,55.959c-0.887,2.764-1.861,5.573-2.915,8.417c-29.812,80.521-124.598,190.771-190.917,190.771
				c-14.28,0-27.056-11.274-27.056-24.802c0-44.051,111.411-113.065,213.994-164.482c1.053-2.845,2.113-4.902,3-7.667
				c-105.557,53.91-223.007,128.039-223.007,170.646c0,38.33,21.795,52.609,64.634,52.609c111.77,0,225.791-154.154,215.83-244.129
				c49.501-22.6,88.444-37.336,97.497-37.336C1144.434,935.737,1151.198,930.476,1142.179,930.476z"/>
		</g>
		
			<linearGradient id="SVGID_00000080920245989096419960000004598114556097870720_" gradientUnits="userSpaceOnUse" x1="1033.2786" y1="1045.5686" x2="1276.4333" y2="1045.5686">
			<stop  offset="0.0056" style="stop-color:#A68863"/>
			<stop  offset="0.0886" style="stop-color:#B39673"/>
			<stop  offset="0.2509" style="stop-color:#C8AD8D"/>
			<stop  offset="0.3964" style="stop-color:#D5BB9D"/>
			<stop  offset="0.5099" style="stop-color:#D9C0A3"/>
			<stop  offset="0.6277" style="stop-color:#D1B899"/>
			<stop  offset="0.8247" style="stop-color:#BDA17F"/>
			<stop  offset="1" style="stop-color:#A68863"/>
		</linearGradient>
		<path style="fill:url(#SVGID_00000080920245989096419960000004598114556097870720_);" d="M1272.44,920.344
			c-71.743,113.376-168.048,236.357-199.704,236.357c-16.91,0,99.206-171.92,99.206-204.613c0-11.274-11.837-24.238-26.493-24.238
			c-7.891,0-12.401,3.946-12.401,3.946s1.691,2.255,1.691,7.328c0,15.219-101.461,162.056-101.461,206.304
			c0,15.219,9.582,25.365,28.747,25.365c41.498,0,140.766-126.995,214.407-243.983
			C1276.318,924.872,1273.854,922.271,1272.44,920.344z"/>
		
			<linearGradient id="SVGID_00000149348123522071780820000008026868084987626634_" gradientUnits="userSpaceOnUse" x1="1193.9254" y1="937.1504" x2="1397.4114" y2="937.1504">
			<stop  offset="0.0056" style="stop-color:#A68863"/>
			<stop  offset="0.0886" style="stop-color:#B39673"/>
			<stop  offset="0.2509" style="stop-color:#C8AD8D"/>
			<stop  offset="0.3964" style="stop-color:#D5BB9D"/>
			<stop  offset="0.5099" style="stop-color:#D9C0A3"/>
			<stop  offset="0.6277" style="stop-color:#D1B899"/>
			<stop  offset="0.8247" style="stop-color:#BDA17F"/>
			<stop  offset="1" style="stop-color:#A68863"/>
		</linearGradient>
		<path style="fill:url(#SVGID_00000149348123522071780820000008026868084987626634_);" d="M1240.147,1155.01
			c-16.91,0,94.133-177.557,94.133-213.632c0-16.693-26.018-11.481-37.5-48.388c42.968-72.756,73.951-138.509,73.951-165.808
			c0-13.528-6.013-24.802-18.413-24.802c-45.658,0-96.952,68.768-96.952,134.154c0,62.321,30.438,81.908,30.438,100.898
			c0,25.365-91.879,164.029-91.879,198.413c0,27.62,14.656,36.075,32.129,36.075c46.221,0,167.975-149.937,167.975-149.937
			l3.382-14.655C1397.411,1007.328,1266.263,1155.01,1240.147,1155.01z M1291.441,850.063c0-50.731,49.603-132.463,64.822-132.463
			c3.946,0,6.2,3.006,6.2,10.334c0,28.041-28.548,88.661-68.061,155.727C1292.549,874.641,1291.441,863.636,1291.441,850.063z"/>
		
			<linearGradient id="SVGID_00000023283340092900918140000007619391235422924184_" gradientUnits="userSpaceOnUse" x1="1532.1294" y1="1049.3214" x2="1753.653" y2="1049.3214">
			<stop  offset="0.0056" style="stop-color:#A68863"/>
			<stop  offset="0.0886" style="stop-color:#B39673"/>
			<stop  offset="0.2509" style="stop-color:#C8AD8D"/>
			<stop  offset="0.3964" style="stop-color:#D5BB9D"/>
			<stop  offset="0.5099" style="stop-color:#D9C0A3"/>
			<stop  offset="0.6277" style="stop-color:#D1B899"/>
			<stop  offset="0.8247" style="stop-color:#BDA17F"/>
			<stop  offset="1" style="stop-color:#A68863"/>
		</linearGradient>
		<path style="fill:url(#SVGID_00000023283340092900918140000007619391235422924184_);" d="M1532.129,1085.678
			c0-14.656,98.643-157.265,162.338-157.265c13.528,0,27.056,7.328,27.056,25.365c0,40.021-102.025,200.668-84.551,200.668
			c15.783,0,116.68-120.626,116.68-120.626v12.401c0,0-98.079,124.008-127.39,124.008c-18.038,0-30.438-11.837-30.438-29.311
			c0-38.33,93.57-201.231,82.86-201.231c-36.639,0-141.482,127.39-141.482,144.3L1532.129,1085.678z"/>
		
			<linearGradient id="SVGID_00000098218335408377294300000002518639400233253534_" gradientUnits="userSpaceOnUse" x1="1476.4929" y1="744.8856" x2="1593.5698" y2="744.8856">
			<stop  offset="0.0056" style="stop-color:#A68863"/>
			<stop  offset="0.0886" style="stop-color:#B39673"/>
			<stop  offset="0.2509" style="stop-color:#C8AD8D"/>
			<stop  offset="0.3964" style="stop-color:#D5BB9D"/>
			<stop  offset="0.5099" style="stop-color:#D9C0A3"/>
			<stop  offset="0.6277" style="stop-color:#D1B899"/>
			<stop  offset="0.8247" style="stop-color:#BDA17F"/>
			<stop  offset="1" style="stop-color:#A68863"/>
		</linearGradient>
		<path style="fill:url(#SVGID_00000098218335408377294300000002518639400233253534_);" d="M1476.493,833.439
			c21.271,1.447,42.525-0.271,63.776-1.641c30.724-59.585,53.301-108.871,53.301-127.163c0-29.311-9.771-48.852-42.839-48.852
			c-7.891,0-13.716,6.952-13.716,6.952s4.697,5.073,4.697,19.353C1541.712,702.406,1512.972,762.85,1476.493,833.439z"/>
		
			<linearGradient id="SVGID_00000039851779905954478630000013844931184490018470_" gradientUnits="userSpaceOnUse" x1="1712.0593" y1="1046.7931" x2="1887.6512" y2="1046.7931">
			<stop  offset="0.0056" style="stop-color:#A68863"/>
			<stop  offset="0.0886" style="stop-color:#B39673"/>
			<stop  offset="0.2509" style="stop-color:#C8AD8D"/>
			<stop  offset="0.3964" style="stop-color:#D5BB9D"/>
			<stop  offset="0.5099" style="stop-color:#D9C0A3"/>
			<stop  offset="0.6277" style="stop-color:#D1B899"/>
			<stop  offset="0.8247" style="stop-color:#BDA17F"/>
			<stop  offset="1" style="stop-color:#A68863"/>
		</linearGradient>
		<path style="fill:url(#SVGID_00000039851779905954478630000013844931184490018470_);" d="M1884.989,962.234
			c0,0,14.656-36.647-24.802-36.639c-108.799,0.022-197.77,244.698-116.68,242.38c30.426-0.87,103.716-120.062,130.772-120.062
			l1.127-7.891c-32.693,0-101.461,116.68-126.263,116.68c-24.802,0,71.587-204.05,117.244-204.05
			C1879.352,952.651,1884.989,962.234,1884.989,962.234z"/>
		
			<linearGradient id="SVGID_00000054969269388640750000000016900806106129873824_" gradientUnits="userSpaceOnUse" x1="1326.3885" y1="1009.1997" x2="1593.9456" y2="1009.1997">
			<stop  offset="0.0056" style="stop-color:#A68863"/>
			<stop  offset="0.0886" style="stop-color:#B39673"/>
			<stop  offset="0.2509" style="stop-color:#C8AD8D"/>
			<stop  offset="0.3964" style="stop-color:#D5BB9D"/>
			<stop  offset="0.5099" style="stop-color:#D9C0A3"/>
			<stop  offset="0.6277" style="stop-color:#D1B899"/>
			<stop  offset="0.8247" style="stop-color:#BDA17F"/>
			<stop  offset="1" style="stop-color:#A68863"/>
		</linearGradient>
		<path style="fill:url(#SVGID_00000054969269388640750000000016900806106129873824_);" d="M1585.678,933.111
			c0,12.025-156.983,221.711-211.941,221.711c-14.05,0,87.944-173.214,157.762-306.679c-20.392,1.346-40.087,1.794-60.5-0.143
			c-0.668-0.063-1.285-0.202-1.86-0.394c-62.515,119.978-142.752,262.735-142.752,288.427c0,15.219,11.837,34.76,31.002,34.76
			c72.714,0,236.555-222.651,236.555-238.434C1593.946,918.831,1585.678,925.783,1585.678,933.111z"/>
		
			<linearGradient id="SVGID_00000099649145390478544670000013143964671866543755_" gradientUnits="userSpaceOnUse" x1="1807.3898" y1="913.2883" x2="2074.5708" y2="913.2883">
			<stop  offset="0.0056" style="stop-color:#A68863"/>
			<stop  offset="0.0886" style="stop-color:#B39673"/>
			<stop  offset="0.2509" style="stop-color:#C8AD8D"/>
			<stop  offset="0.3964" style="stop-color:#D5BB9D"/>
			<stop  offset="0.5099" style="stop-color:#D9C0A3"/>
			<stop  offset="0.6277" style="stop-color:#D1B899"/>
			<stop  offset="0.8247" style="stop-color:#BDA17F"/>
			<stop  offset="1" style="stop-color:#A68863"/>
		</linearGradient>
		<path style="fill:url(#SVGID_00000099649145390478544670000013143964671866543755_);" d="M2018.016,662.735
			c0,0,5.825-6.952,13.716-6.952c33.069,0,42.839,19.541,42.839,48.852c0,59.749-240.876,450.187-219.832,450.187
			c54.958,0,154.071-170.605,154.071-182.63c0-7.328,8.267-14.28,8.267-0.751c0,15.783-105.971,199.352-178.684,199.352
			c-19.165,0-31.002-19.541-31.002-34.76c0-42.088,215.323-398.329,215.323-453.945
			C2022.713,667.809,2018.016,662.735,2018.016,662.735z"/>
		
			<linearGradient id="SVGID_00000117667264601577676520000011727888946695959992_" gradientUnits="userSpaceOnUse" x1="1625.4465" y1="738.6834" x2="1736.7427" y2="738.6834">
			<stop  offset="0.0056" style="stop-color:#A68863"/>
			<stop  offset="0.0886" style="stop-color:#B39673"/>
			<stop  offset="0.2509" style="stop-color:#C8AD8D"/>
			<stop  offset="0.3964" style="stop-color:#D5BB9D"/>
			<stop  offset="0.5099" style="stop-color:#D9C0A3"/>
			<stop  offset="0.6277" style="stop-color:#D1B899"/>
			<stop  offset="0.8247" style="stop-color:#BDA17F"/>
			<stop  offset="1" style="stop-color:#A68863"/>
		</linearGradient>
		<path style="fill:url(#SVGID_00000117667264601577676520000011727888946695959992_);" d="M1625.447,821.583
			c20.54-4.097,41.491-5.781,62.216-8.818c28.635-55.605,49.08-100.26,49.08-117.148c0-24.05-10.898-39.833-43.966-39.833
			c-7.891,0-13.716,6.952-13.716,6.952s4.697,5.073,4.697,19.353C1683.757,697.201,1658.728,752.919,1625.447,821.583z"/>
		
			<linearGradient id="SVGID_00000148628140653511895200000007706233269337663888_" gradientUnits="userSpaceOnUse" x1="1460.9186" y1="998.2543" x2="1679.2832" y2="998.2543">
			<stop  offset="0.0056" style="stop-color:#A68863"/>
			<stop  offset="0.0886" style="stop-color:#B39673"/>
			<stop  offset="0.2509" style="stop-color:#C8AD8D"/>
			<stop  offset="0.3964" style="stop-color:#D5BB9D"/>
			<stop  offset="0.5099" style="stop-color:#D9C0A3"/>
			<stop  offset="0.6277" style="stop-color:#D1B899"/>
			<stop  offset="0.8247" style="stop-color:#BDA17F"/>
			<stop  offset="1" style="stop-color:#A68863"/>
		</linearGradient>
		<path style="fill:url(#SVGID_00000148628140653511895200000007706233269337663888_);" d="M1617.494,838.732
			c-0.152,0.028-0.294,0.06-0.442,0.09c-65.651,134.262-156.134,307.089-156.134,328.401c19.541,0,24.802,0.376,48.1,0.376
			c0-33.58,102.803-209.66,170.264-338.689C1656.745,832.163,1639.4,834.758,1617.494,838.732z"/>
		
			<linearGradient id="SVGID_00000176005483469660765390000002324695499002884762_" gradientUnits="userSpaceOnUse" x1="1937.2898" y1="1534.7661" x2="2001.5168" y2="1534.7661">
			<stop  offset="0.0056" style="stop-color:#A68863"/>
			<stop  offset="0.0886" style="stop-color:#B39673"/>
			<stop  offset="0.2509" style="stop-color:#C8AD8D"/>
			<stop  offset="0.3964" style="stop-color:#D5BB9D"/>
			<stop  offset="0.5099" style="stop-color:#D9C0A3"/>
			<stop  offset="0.6277" style="stop-color:#D1B899"/>
			<stop  offset="0.8247" style="stop-color:#BDA17F"/>
			<stop  offset="1" style="stop-color:#A68863"/>
		</linearGradient>
		<path style="fill:url(#SVGID_00000176005483469660765390000002324695499002884762_);" d="M1950.939,1588.475
			c8.018-17.639,35.418-61.319,50.578-109.949c-4.951,0.288-9.891,0.723-14.827,1.227c-14.617,49.304-40.633,88.846-47.024,100.83
			C1930.469,1597.825,1950.939,1588.475,1950.939,1588.475z"/>
		
			<linearGradient id="SVGID_00000012468023868009072720000002277950110397327490_" gradientUnits="userSpaceOnUse" x1="1930.7646" y1="1046.7931" x2="2106.3567" y2="1046.7931">
			<stop  offset="0.0056" style="stop-color:#A68863"/>
			<stop  offset="0.0886" style="stop-color:#B39673"/>
			<stop  offset="0.2509" style="stop-color:#C8AD8D"/>
			<stop  offset="0.3964" style="stop-color:#D5BB9D"/>
			<stop  offset="0.5099" style="stop-color:#D9C0A3"/>
			<stop  offset="0.6277" style="stop-color:#D1B899"/>
			<stop  offset="0.8247" style="stop-color:#BDA17F"/>
			<stop  offset="1" style="stop-color:#A68863"/>
		</linearGradient>
		<path style="fill:url(#SVGID_00000012468023868009072720000002277950110397327490_);" d="M2103.694,962.234
			c0,0,14.656-36.647-24.802-36.639c-108.799,0.022-197.77,244.698-116.68,242.38c30.426-0.87,111.607-116.117,138.664-116.117
			l1.127-7.891c-32.693,0-109.353,112.735-134.154,112.735c-24.802,0,71.587-204.05,117.244-204.05
			C2098.057,952.651,2103.694,962.234,2103.694,962.234z"/>
		
			<linearGradient id="SVGID_00000129893356445007444700000009815590236197399999_" gradientUnits="userSpaceOnUse" x1="2032.1075" y1="1049.3214" x2="2223.7239" y2="1049.3214">
			<stop  offset="0.0056" style="stop-color:#A68863"/>
			<stop  offset="0.0886" style="stop-color:#B39673"/>
			<stop  offset="0.2509" style="stop-color:#C8AD8D"/>
			<stop  offset="0.3964" style="stop-color:#D5BB9D"/>
			<stop  offset="0.5099" style="stop-color:#D9C0A3"/>
			<stop  offset="0.6277" style="stop-color:#D1B899"/>
			<stop  offset="0.8247" style="stop-color:#BDA17F"/>
			<stop  offset="1" style="stop-color:#A68863"/>
		</linearGradient>
		<path style="fill:url(#SVGID_00000129893356445007444700000009815590236197399999_);" d="M2131.878,931.795
			c0,0,4.51-3.946,12.401-3.946c14.656,0,26.493,12.964,26.493,24.238c0,32.693-116.117,204.613-99.207,204.613
			c25.553,0,139.791-113.862,150.313-113.862c3.382,0,1.503,8.643-0.751,8.643c-13.528,0-119.875,119.311-160.271,119.311
			c-19.165,0-28.747-10.146-28.747-25.365c0-44.248,101.461-191.085,101.461-206.304
			C2133.569,934.05,2131.878,931.795,2131.878,931.795z"/>
		
			<linearGradient id="SVGID_00000116949740710536515960000006313922543612564656_" gradientUnits="userSpaceOnUse" x1="2152.1699" y1="1049.0396" x2="2351.4966" y2="1049.0396">
			<stop  offset="0.0056" style="stop-color:#A68863"/>
			<stop  offset="0.0886" style="stop-color:#B39673"/>
			<stop  offset="0.2509" style="stop-color:#C8AD8D"/>
			<stop  offset="0.3964" style="stop-color:#D5BB9D"/>
			<stop  offset="0.5099" style="stop-color:#D9C0A3"/>
			<stop  offset="0.6277" style="stop-color:#D1B899"/>
			<stop  offset="0.8247" style="stop-color:#BDA17F"/>
			<stop  offset="1" style="stop-color:#A68863"/>
		</linearGradient>
		<path style="fill:url(#SVGID_00000116949740710536515960000006313922543612564656_);" d="M2243.109,931.795
			c0,0,4.51-3.946,12.401-3.946c14.656,0,26.493,12.964,26.493,24.238c0,42.839-125.323,209.686-87.557,209.686
			c81.169,0,149.16-174.804,149.16-219.971c0-11.273,7.892-6.764,7.892-1.127c0,44.349-70.809,229.553-159.869,229.553
			c-19.165,0-39.457-3.382-39.457-46.785c0-52.985,92.63-169.102,92.63-184.321C2244.8,934.05,2243.109,931.795,2243.109,931.795z"
			/>
		
			<linearGradient id="SVGID_00000018222299191914439090000011534927095552799388_" gradientUnits="userSpaceOnUse" x1="2122.5967" y1="1197.4061" x2="2393.4221" y2="1197.4061">
			<stop  offset="0.0056" style="stop-color:#A68863"/>
			<stop  offset="0.0886" style="stop-color:#B39673"/>
			<stop  offset="0.2509" style="stop-color:#C8AD8D"/>
			<stop  offset="0.3964" style="stop-color:#D5BB9D"/>
			<stop  offset="0.5099" style="stop-color:#D9C0A3"/>
			<stop  offset="0.6277" style="stop-color:#D1B899"/>
			<stop  offset="0.8247" style="stop-color:#BDA17F"/>
			<stop  offset="1" style="stop-color:#A68863"/>
		</linearGradient>
		<path style="fill:url(#SVGID_00000018222299191914439090000011534927095552799388_);" d="M2122.597,1463.986
			c23.713,0.025,47.417,0.25,71.07,1.849c120.421-194.292,199.755-414.967,199.755-486.127c0-28.184-9.019-50.731-34.384-50.731
			c-10.146,0-16.347,8.455-16.347,8.455s6.86,9.857,6.86,26.974C2349.551,1005.829,2254.615,1254.382,2122.597,1463.986z"/>
		
			<linearGradient id="SVGID_00000013169273275334788760000015842317206185193358_" gradientUnits="userSpaceOnUse" x1="1649.5135" y1="1555.594" x2="2185.313" y2="1555.594">
			<stop  offset="0.0056" style="stop-color:#A68863"/>
			<stop  offset="0.0886" style="stop-color:#B39673"/>
			<stop  offset="0.2509" style="stop-color:#C8AD8D"/>
			<stop  offset="0.3964" style="stop-color:#D5BB9D"/>
			<stop  offset="0.5099" style="stop-color:#D9C0A3"/>
			<stop  offset="0.6277" style="stop-color:#D1B899"/>
			<stop  offset="0.8247" style="stop-color:#BDA17F"/>
			<stop  offset="1" style="stop-color:#A68863"/>
		</linearGradient>
		<path style="fill:url(#SVGID_00000013169273275334788760000015842317206185193358_);" d="M2113.445,1478.357
			c-100.957,156.835-222.302,288.239-339.124,288.239c-243.507,0-42.088-443.047,162.338-443.047
			c34.572,0,60.125,27.056,60.125,91.691c0,16.78-2.305,33.325-6,49.113c4.993-0.467,9.992-0.837,15.005-1.032
			c3.722-14.966,6.026-30.185,6.026-45.074c0-84.175-36.075-105.219-73.653-105.219c-240.501,0-429.895,485.135-147.307,485.135
			c145.032,0,285.88-148.262,394.458-319.294C2158.998,1477.99,2134.73,1478.867,2113.445,1478.357z"/>
		
			<linearGradient id="SVGID_00000009555575532933270850000005848753985904501407_" gradientUnits="userSpaceOnUse" x1="1732.0029" y1="1516.3711" x2="2405.635" y2="1516.3711">
			<stop  offset="0.0056" style="stop-color:#A68863"/>
			<stop  offset="0.0886" style="stop-color:#B39673"/>
			<stop  offset="0.2509" style="stop-color:#C8AD8D"/>
			<stop  offset="0.3964" style="stop-color:#D5BB9D"/>
			<stop  offset="0.5099" style="stop-color:#D9C0A3"/>
			<stop  offset="0.6277" style="stop-color:#D1B899"/>
			<stop  offset="0.8247" style="stop-color:#BDA17F"/>
			<stop  offset="1" style="stop-color:#A68863"/>
		</linearGradient>
		<path style="fill:url(#SVGID_00000009555575532933270850000005848753985904501407_);" d="M2112,1436
			c-64.274,0-360.802,14.074-361.214,14.512c-5.882,6.258-12.64,14.517-18.783,24.943c205.511-1.947,380.051-3.455,443.997-3.455
			c180.375,0,208.591,124.742,208.591,124.742s21.044-27.056,21.044-48.1C2405.635,1440,2199.181,1436,2112,1436z"/>
		
			<linearGradient id="SVGID_00000022548469721514623280000016833668829208555689_" gradientUnits="userSpaceOnUse" x1="1381.6285" y1="832.0253" x2="1858.4962" y2="832.0253">
			<stop  offset="0.0056" style="stop-color:#A68863"/>
			<stop  offset="0.0886" style="stop-color:#B39673"/>
			<stop  offset="0.2509" style="stop-color:#C8AD8D"/>
			<stop  offset="0.3964" style="stop-color:#D5BB9D"/>
			<stop  offset="0.5099" style="stop-color:#D9C0A3"/>
			<stop  offset="0.6277" style="stop-color:#D1B899"/>
			<stop  offset="0.8247" style="stop-color:#BDA17F"/>
			<stop  offset="1" style="stop-color:#A68863"/>
		</linearGradient>
		<path style="fill:url(#SVGID_00000022548469721514623280000016833668829208555689_);" d="M1394.029,765.512
			c37.203,0,5.637,63.131,113.862,63.131c104.843,0,153.883-31.566,263.235-31.566c65.95,0,87.369,29.311,87.369,59.749
			c0,31.002-18.038,41.712-30.438,41.712c-9.582,0-17.474-6.764-17.474-13.528c0-19.165,27.62-25.365,27.62-42.839
			c0-17.474-24.238-30.438-60.313-30.438c-99.77,0-168.538,29.311-272.818,29.311c-65.95,0-123.445-22.547-123.445-58.622
			C1381.629,765.512,1394.029,765.512,1394.029,765.512z"/>
		
			<linearGradient id="SVGID_00000024718735597694956730000001825168472321412002_" gradientUnits="userSpaceOnUse" x1="1151.5787" y1="876.5555" x2="1209.1445" y2="876.5555">
			<stop  offset="0.0056" style="stop-color:#A68863"/>
			<stop  offset="0.0886" style="stop-color:#B39673"/>
			<stop  offset="0.2509" style="stop-color:#C8AD8D"/>
			<stop  offset="0.3964" style="stop-color:#D5BB9D"/>
			<stop  offset="0.5099" style="stop-color:#D9C0A3"/>
			<stop  offset="0.6277" style="stop-color:#D1B899"/>
			<stop  offset="0.8247" style="stop-color:#BDA17F"/>
			<stop  offset="1" style="stop-color:#A68863"/>
		</linearGradient>
		<path style="fill:url(#SVGID_00000024718735597694956730000001825168472321412002_);" d="M1162.36,913.758
			c-11.273,0-20.856-74.405,10.146-74.405c9.019,0,14.092,11.273,14.092,11.273s22.547-10.146,22.547,11.273
			C1209.145,881.065,1171.942,913.758,1162.36,913.758z"/>
		
			<linearGradient id="SVGID_00000070798024654880189280000009513043339923254200_" gradientUnits="userSpaceOnUse" x1="1902.0157" y1="1610.0824" x2="1959.5815" y2="1610.0824">
			<stop  offset="0.0056" style="stop-color:#A68863"/>
			<stop  offset="0.0886" style="stop-color:#B39673"/>
			<stop  offset="0.2509" style="stop-color:#C8AD8D"/>
			<stop  offset="0.3964" style="stop-color:#D5BB9D"/>
			<stop  offset="0.5099" style="stop-color:#D9C0A3"/>
			<stop  offset="0.6277" style="stop-color:#D1B899"/>
			<stop  offset="0.8247" style="stop-color:#BDA17F"/>
			<stop  offset="1" style="stop-color:#A68863"/>
		</linearGradient>
		<path style="fill:url(#SVGID_00000070798024654880189280000009513043339923254200_);" d="M1948.801,1572.88
			c11.273,0,20.856,74.405-10.146,74.405c-9.019,0-14.092-11.273-14.092-11.273s-22.547,10.146-22.547-11.273
			C1902.016,1605.573,1939.218,1572.88,1948.801,1572.88z"/>
		
			<linearGradient id="SVGID_00000096779996419790932200000002702813376928859270_" gradientUnits="userSpaceOnUse" x1="879.2252" y1="547.3704" x2="936.7911" y2="547.3704">
			<stop  offset="0.0056" style="stop-color:#A68863"/>
			<stop  offset="0.0886" style="stop-color:#B39673"/>
			<stop  offset="0.2509" style="stop-color:#C8AD8D"/>
			<stop  offset="0.3964" style="stop-color:#D5BB9D"/>
			<stop  offset="0.5099" style="stop-color:#D9C0A3"/>
			<stop  offset="0.6277" style="stop-color:#D1B899"/>
			<stop  offset="0.8247" style="stop-color:#BDA17F"/>
			<stop  offset="1" style="stop-color:#A68863"/>
		</linearGradient>
		<path style="fill:url(#SVGID_00000096779996419790932200000002702813376928859270_);" d="M890.006,584.573
			c-11.273,0-20.856-74.405,10.146-74.405c9.019,0,14.092,11.273,14.092,11.273s22.547-10.146,22.547,11.273
			C936.791,551.88,899.589,584.573,890.006,584.573z"/>
	</g>
	<g>
		<g>
			<path style="fill:#D9C0A3;" d="M1302.669,563.552h-12.881l11.188-45.578h-50.334l-11.188,45.578h-12.815l23.77-96.837h12.815
				l-9.761,39.765h50.334l9.761-39.765h12.881L1302.669,563.552z"/>
			<path style="fill:#D9C0A3;" d="M1368.84,556.352c-7.79,5.902-16.683,8.852-26.679,8.852c-6.959,0-12.221-1.883-15.788-5.648
				c-3.568-3.765-4.622-8.62-3.162-14.565c4.021-16.382,20.144-24.573,48.373-24.573h6.077c1.232-5.02,1.862-8.663,1.891-10.932
				c0.028-2.268-0.986-4.151-3.039-5.648c-2.055-1.496-5.724-2.246-11.009-2.246c-11.097,0-17.795,3.963-20.093,11.89h-12.418
				c4.459-14.4,16.31-21.6,35.555-21.6c8.984,0,15.548,1.784,19.692,5.35c4.145,3.567,4.936,10.569,2.374,21.006l-11.123,45.314
				h-12.418L1368.84,556.352z M1371.596,545.122l3.81-15.523h-8.521c-18.056,0-28.288,4.911-30.698,14.73
				c-0.876,3.567-0.227,6.308,1.945,8.224c2.172,1.916,5.504,2.873,9.996,2.873c4.095,0,8.286-0.925,12.571-2.774
				C1364.984,550.803,1368.615,548.293,1371.596,545.122z"/>
			<path style="fill:#D9C0A3;" d="M1425.549,501.856c7.181-6.648,14.669-9.974,22.463-9.974c9.16,0,15.453,3.248,18.878,9.743
				c3.426,6.497,3.782,15.27,1.069,26.323c-2.821,11.494-7.858,20.576-15.11,27.248c-7.252,6.672-15.15,10.007-23.693,10.007
				c-7.574,0-13.383-2.355-17.421-7.068l-7.945,32.367h-12.484l23.818-97.035h12.484L1425.549,501.856z M1414.491,546.906
				c3.933,5.681,9.358,8.521,16.272,8.521c5.372,0,10.209-2.301,14.509-6.903c4.3-4.601,7.569-11.461,9.807-20.576
				c2.118-8.63,2.229-15.182,0.332-19.651c-1.898-4.469-5.532-6.705-10.905-6.705c-6.914,0-14.195,4.007-21.843,12.022
				L1414.491,546.906z"/>
			<path style="fill:#D9C0A3;" d="M1500.786,501.856c7.181-6.648,14.669-9.974,22.463-9.974c9.16,0,15.453,3.248,18.878,9.743
				c3.426,6.497,3.782,15.27,1.069,26.323c-2.821,11.494-7.858,20.576-15.11,27.248c-7.252,6.672-15.15,10.007-23.693,10.007
				c-7.574,0-13.382-2.355-17.421-7.068l-7.945,32.367h-12.484l23.818-97.035h12.484L1500.786,501.856z M1489.728,546.906
				c3.934,5.681,9.358,8.521,16.272,8.521c5.372,0,10.209-2.301,14.509-6.903c4.3-4.601,7.569-11.461,9.807-20.576
				c2.118-8.63,2.229-15.182,0.332-19.651c-1.898-4.469-5.532-6.705-10.905-6.705c-6.914,0-14.195,4.007-21.843,12.022
				L1489.728,546.906z"/>
			<path style="fill:#D9C0A3;" d="M1548.208,580.462c6.165,0,12.591-5.638,19.277-16.91l-9.285-70.085h13.475l5.104,54.826
				l32.019-54.826h13.475l-43.691,70.085c-4.197,6.694-7.633,11.857-10.309,15.49c-2.675,3.633-5.76,6.694-9.256,9.182
				c-3.495,2.487-7.334,3.732-11.518,3.732c-3.127,0-5.737-0.308-7.832-0.925l2.821-11.494
				C1544.276,580.154,1546.182,580.462,1548.208,580.462z"/>
		</g>
	</g>
	<g>
		<g>
			<path style="fill:#D9C0A3;" d="M1113.966,1349.889c-2.861,0.529-5.898,0.793-9.112,0.793c-5.109,0-8.627-0.914-10.557-2.741
				c-1.929-1.828-2.83-4.172-2.699-7.035c0.13-2.862,0.801-6.76,2.011-11.692l9.761-39.765h-8.653l2.4-9.776h8.653l4.281-17.439
				h12.418l-4.281,17.439h11.362l-2.4,9.776h-11.361l-9.923,40.426c-1.178,4.8-1.322,7.85-0.429,9.149
				c0.892,1.299,2.395,1.949,4.509,1.949c2.157,0,4.271-0.176,6.339-0.528L1113.966,1349.889z"/>
			<path style="fill:#D9C0A3;" d="M1170.365,1278.087c9.996,0,17.193,3.193,21.594,9.578c4.4,6.385,5.167,15.413,2.303,27.083
				c-2.854,11.626-8.05,20.642-15.59,27.05c-7.541,6.407-16.308,9.611-26.304,9.611c-9.952,0-17.126-3.204-21.52-9.611
				c-4.395-6.407-5.165-15.424-2.311-27.05c2.865-11.67,8.063-20.697,15.598-27.083
				C1151.669,1281.279,1160.413,1278.087,1170.365,1278.087z M1154.767,1341.632c5.945,0,11.321-2.257,16.128-6.771
				c4.807-4.514,8.302-11.218,10.486-20.114c2.194-8.94,1.996-15.666-0.595-20.18c-2.591-4.514-6.859-6.771-12.804-6.771
				c-5.945,0-11.321,2.257-16.128,6.771c-4.807,4.514-8.308,11.24-10.502,20.18c-2.183,8.896-1.979,15.6,0.612,20.114
				C1144.554,1339.375,1148.822,1341.632,1154.767,1341.632z"/>
			<path style="fill:#D9C0A3;" d="M1235.353,1366.667c6.165,0,12.59-5.637,19.277-16.91l-9.285-70.085h13.475l5.104,54.826
				l32.019-54.826h13.475l-43.691,70.085c-4.197,6.694-7.633,11.857-10.309,15.49c-2.675,3.633-5.762,6.694-9.256,9.182
				c-3.495,2.488-7.334,3.732-11.518,3.732c-3.128,0-5.737-0.308-7.832-0.925l2.821-11.494
				C1231.421,1366.359,1233.327,1366.667,1235.353,1366.667z"/>
			<path style="fill:#D9C0A3;" d="M1349.177,1278.087c9.996,0,17.194,3.193,21.594,9.578s5.167,15.413,2.303,27.083
				c-2.854,11.626-8.05,20.642-15.59,27.05c-7.54,6.407-16.308,9.611-26.304,9.611c-9.952,0-17.126-3.204-21.52-9.611
				c-4.395-6.407-5.165-15.424-2.311-27.05c2.865-11.67,8.063-20.697,15.598-27.083
				C1330.481,1281.279,1339.225,1278.087,1349.177,1278.087z M1333.579,1341.632c5.945,0,11.321-2.257,16.128-6.771
				c4.807-4.514,8.302-11.218,10.486-20.114c2.194-8.94,1.996-15.666-0.595-20.18c-2.591-4.514-6.859-6.771-12.804-6.771
				c-5.945,0-11.321,2.257-16.128,6.771c-4.807,4.514-8.308,11.24-10.502,20.18c-2.183,8.896-1.98,15.6,0.611,20.114
				S1327.634,1341.632,1333.579,1341.632z"/>
			<path style="fill:#D9C0A3;" d="M1424.996,1340.839c-7.939,7.046-15.783,10.569-23.534,10.569
				c-15.809,0-21.595-8.631-17.358-25.894l11.252-45.842h12.484l-11.123,45.314c-1.405,5.725-1.403,9.842,0.006,12.352
				c1.41,2.51,4.448,3.765,9.116,3.765c6.958,0,14.24-3.743,21.846-11.229l12.323-50.202h12.418l-17.203,70.085h-12.418
				L1424.996,1340.839z"/>
		</g>
	</g>
</g>
</svg>
